<svg width="196" height="35" viewBox="0 0 196 35" fill="none" xmlns="http://www.w3.org/2000/svg">
<path d="M38.2525 17.06C38.2525 28.2347 38.3218 34.06 38.4833 34.06C38.6449 34.06 38.7142 28.2347 38.7142 17.06C38.7142 5.88533 38.6449 0.0599976 38.4833 0.0599976C38.3218 0.0599976 38.2525 5.88533 38.2525 17.06Z" fill="#2D31FA"/>
<path d="M22.8098 5.22798C22.3712 5.43198 21.8172 5.88531 21.5633 6.20265C21.0093 6.95065 20.8015 8.65065 21.1708 9.35331C21.4248 9.82931 21.2632 10.056 18.4008 12.8666L15.3308 15.8813L14.6152 15.4506C13.6688 14.884 11.4758 14.884 10.1832 15.4506C9.67535 15.6773 8.93668 16.244 8.54427 16.72L7.82868 17.5586L5.88968 16.9466C4.52777 16.4933 3.81218 16.1306 3.39668 15.632C2.6811 14.816 1.75777 14.748 0.949852 15.4733C0.234269 16.1533 0.234269 17.06 0.972935 17.74C1.4346 18.1706 1.68852 18.2386 2.47335 18.1026C3.16585 17.9893 3.9276 18.1253 5.35877 18.5333L7.32085 19.1226V20.1426C7.32085 22.2506 9.25985 24.4946 11.4066 24.9026C12.5608 25.1066 14.1073 24.812 15.0538 24.1773C15.5154 23.8826 15.9309 23.6333 16.0002 23.6333C16.0694 23.6333 17.2236 24.404 18.5855 25.356L21.0554 27.0786L20.9862 28.0533C20.8938 29.2093 21.3324 30.1387 22.325 30.9773C22.9252 31.476 23.2714 31.5667 24.4256 31.5667C25.7183 31.5667 25.8337 31.5213 26.7108 30.66C27.588 29.7987 27.6342 29.6853 27.6342 28.416C27.6342 27.2826 27.5418 26.9426 27.0109 26.3306C25.9029 25.0613 24.3794 24.676 22.9252 25.356L22.1403 25.7413L19.5781 23.9733C17.339 22.432 17.0389 22.1373 17.1774 21.7293C17.5237 20.8453 17.3852 18.5786 16.9466 17.74L16.5311 16.9693L19.5319 14.0226L22.5097 11.0986L23.5484 11.3933C24.9334 11.756 26.0183 11.416 26.9417 10.3053C27.5418 9.60265 27.6342 9.28531 27.6342 8.17465C27.6342 7.10931 27.5188 6.76931 27.0109 6.15731C25.8798 4.86531 24.264 4.47998 22.8098 5.22798Z" fill="#2D31FA"/>
<path d="M156.093 7.88004C155.585 8.06137 154.777 8.60537 154.316 9.08137C152.884 10.6 152.723 11.5294 152.515 18.9867C152.423 22.5907 152.4 25.6734 152.446 25.832C152.607 26.2627 153.208 26.376 154.639 26.2174C155.631 26.104 155.978 25.968 156.024 25.696C156.047 25.492 156.07 25.1747 156.116 24.9934C156.139 24.812 156.162 23.656 156.185 22.432L156.208 20.2334H158.863H161.518V22.8854C161.518 24.3587 161.61 25.696 161.725 25.8547C161.979 26.2627 164.311 26.4667 164.957 26.1267L165.465 25.8774L165.396 18.692C165.303 10.872 165.303 10.736 163.918 9.14937C162.879 7.92537 161.748 7.54004 159.209 7.56271C157.917 7.56271 156.647 7.69871 156.093 7.88004ZM160.571 11.5747C161.287 12.0734 161.702 13.456 161.725 15.292L161.748 16.6067H158.955H156.139L156.278 14.7254C156.439 12.5494 156.739 11.7334 157.57 11.2574C158.332 10.8494 159.786 10.9854 160.571 11.5747Z" fill="#2D31FA"/>
<path d="M55.2419 8.10663C52.218 9.1493 51.2254 11.9373 51.4793 18.5333C51.6409 22.9986 52.3795 24.8573 54.4801 25.968C55.3111 26.3986 55.8189 26.4666 57.8734 26.4666C59.9047 26.4666 60.4356 26.3986 61.2204 25.968C62.9979 25.0386 64.1059 23.248 64.1751 21.1853L64.2213 19.8933L62.7901 19.8253C60.9665 19.7346 60.5049 19.984 60.3202 21.1173C60.1124 22.364 59.3045 22.9533 57.7579 22.9533C55.6112 22.9533 55.1264 21.9106 55.1264 17.1733C55.1264 12.436 55.6112 11.3933 57.7579 11.3933C59.2353 11.3933 60.0894 11.96 60.3202 13.116C60.3894 13.5466 60.551 13.932 60.6434 14C60.7357 14.0453 61.4974 14.1133 62.3515 14.1586C64.1751 14.2266 64.429 14 64.2213 12.64C63.8981 10.4866 62.1899 8.49197 60.2971 8.01597C58.9121 7.67596 56.3268 7.7213 55.2419 8.10663Z" fill="#2D31FA"/>
<path d="M70.9385 8.10663C67.9146 9.1493 66.922 11.9373 67.1759 18.5333C67.3375 22.9986 68.0762 24.8573 70.1768 25.968C71.0078 26.3986 71.5156 26.4666 73.57 26.4666C75.6014 26.4666 76.1323 26.3986 76.9171 25.968C78.0482 25.3786 78.6714 24.744 79.3639 23.4066C79.8949 22.4093 79.9179 22.2053 79.9179 17.1733C79.9179 12.0733 79.9179 11.9373 79.3409 10.8493C78.6253 9.46663 77.2864 8.3333 75.9938 8.01597C74.6088 7.67596 72.0234 7.7213 70.9385 8.10663ZM75.232 11.8466C76.063 12.4813 76.34 13.8413 76.34 17.1733C76.34 21.888 75.8091 22.9533 73.4546 22.9533C71.3079 22.9533 70.8231 21.9106 70.8231 17.1733C70.8231 12.436 71.3079 11.3933 73.4546 11.3933C74.3087 11.3933 74.8396 11.5293 75.232 11.8466Z" fill="#2D31FA"/>
<path d="M84.0267 7.94797C83.7497 7.99331 83.4727 8.17464 83.4035 8.35597C83.3342 8.53731 83.2188 12.368 83.1496 16.9013C83.0341 23.5653 83.0572 25.22 83.3111 25.6733C83.6112 26.24 83.6805 26.24 86.9583 26.308C88.8511 26.3533 90.8132 26.2626 91.4827 26.1266C92.9831 25.8093 94.3912 24.676 95.1991 23.0893C95.7531 22.024 95.7992 21.6386 95.9147 18.3066C96.1455 10.6226 94.9682 8.51464 90.1438 7.99331C88.3895 7.7893 85.2501 7.76664 84.0267 7.94797ZM91.1826 12.028C91.9212 12.708 92.0367 13.4106 92.0597 17.0373C92.0597 20.1426 91.8289 21.5706 91.2057 22.0693C90.8132 22.3866 87.5585 22.7493 87.0276 22.568C86.6813 22.432 86.6351 19.0546 86.8891 14.272L87.0276 11.348L88.8281 11.4386C90.3054 11.484 90.7209 11.5973 91.1826 12.028Z" fill="#2D31FA"/>
<path d="M99.885 7.94799L99.0771 8.10665L99.0078 17.0373C98.9617 24.0413 99.0309 26.0133 99.2387 26.172C99.4003 26.2626 101.847 26.3533 104.686 26.3533H109.811L110.042 25.764C110.296 25.1293 110.342 23.6333 110.134 23.0893C110.019 22.772 109.465 22.7266 106.325 22.7266H102.655V20.5733V18.42H106.21H109.788L109.926 17.4453C110.019 16.9013 110.042 16.176 109.996 15.7906C109.926 15.1786 109.857 15.1333 108.657 14.9746C107.964 14.9066 106.325 14.8386 105.033 14.816L102.655 14.7933V13.2066V11.6426L106.302 11.5746L109.926 11.5066L109.996 9.73865L110.065 7.99332H106.048C103.832 7.99332 101.732 7.94799 101.362 7.90265C100.993 7.85732 100.324 7.87999 99.885 7.94799Z" fill="#2D31FA"/>
<path d="M123.869 8.40137C122.807 8.94536 122.507 9.24003 121.883 10.464C121.306 11.552 121.122 12.164 121.122 13.116C121.122 15.8814 122.599 17.2867 127.4 18.964C129.039 19.5534 129.662 20.12 129.662 21.0493C129.662 21.5933 129.478 22.024 129.062 22.432C128.531 22.9533 128.324 22.9987 127.216 22.908C125.715 22.772 125.3 22.432 124.815 20.9587L124.469 19.8934H122.737H121.006L120.937 20.6414C120.798 21.956 121.583 23.86 122.645 24.9253C124.423 26.6707 128.139 27.124 130.701 25.9C133.102 24.7667 134.256 21.0493 132.986 18.624C132.317 17.332 131.348 16.6747 128.578 15.6774C127.077 15.1334 125.623 14.476 125.346 14.1814C123.753 12.64 126.061 10.532 128.347 11.4614C129.132 11.8014 129.57 12.368 129.986 13.7054C130.17 14.3174 133.24 14.2947 133.564 13.7054C134.094 12.7534 132.963 10.0334 131.578 8.9227C130.447 7.99336 129.524 7.7667 127.1 7.7667C125.346 7.7667 124.93 7.85736 123.869 8.40137Z" fill="#2D31FA"/>
<path d="M137.742 7.97066L136.934 8.10666L136.818 16.9466C136.749 21.82 136.795 25.9226 136.911 26.0586C137.026 26.24 137.695 26.3533 138.688 26.3533C139.796 26.3533 140.281 26.2626 140.304 26.0586C140.35 25.5373 140.419 23.9733 140.465 21.5253L140.512 19.1H143.051H145.567L145.636 22.6586L145.705 26.24H147.437H149.168V17.1733V8.12932L148.314 7.92533C147.806 7.81199 147.067 7.81199 146.583 7.92533L145.705 8.12932L145.636 11.8013L145.59 15.4733H143.051H140.512V11.8467C140.512 9.12666 140.442 8.17466 140.235 8.12932C139.542 7.92533 138.503 7.85732 137.742 7.97066Z" fill="#2D31FA"/>
<path d="M168.904 8.10667C168.604 8.44667 168.558 9.92 168.535 17.2187L168.512 25.9453L169.02 26.172C169.343 26.308 169.989 26.3307 170.774 26.1947L172.02 26.0133L172.09 22.432C172.136 19.032 172.159 18.8733 172.621 18.8733C173.082 18.8733 173.359 19.3267 174.86 22.7267C175.552 24.268 176.591 25.56 177.56 25.9907C178.761 26.5573 180.584 26.3987 181.185 25.6733C181.923 24.7893 181.577 23.18 180.654 23.18C180.4 23.18 179.846 23.044 179.407 22.8627C178.761 22.5907 178.461 22.2053 177.699 20.664L176.776 18.76L177.584 18.3747C180.469 17.0147 181.669 14.4307 180.815 11.552C180.33 9.92 179.592 9.08134 178.091 8.44667C177.03 7.99334 176.383 7.90267 173.059 7.812C169.597 7.72134 169.204 7.744 168.904 8.10667ZM176.591 12.0733C177.307 12.844 177.422 13.9547 176.868 14.7253C176.452 15.292 174.583 15.6093 173.082 15.36L172.136 15.2013V13.32C172.136 11.1213 172.113 11.144 174.444 11.3027C175.76 11.3933 176.037 11.484 176.591 12.0733Z" fill="#2D31FA"/>
<path d="M184.416 8.03862C184.001 8.53729 183.724 25.764 184.139 26.0133C184.485 26.2173 194.642 26.2173 194.988 26.0133C195.288 25.832 195.288 23.0213 194.988 22.84C194.873 22.772 193.165 22.636 191.18 22.568L187.602 22.432V20.4373V18.4426L191.249 18.3746L194.873 18.3066V16.6066V14.9066L191.364 14.8386L187.833 14.7706V13.0706V11.348L191.318 11.416C194.134 11.4613 194.827 11.416 195.011 11.144C195.312 10.668 195.265 8.31062 194.942 8.06129C194.781 7.94795 192.403 7.83462 189.679 7.78929C185.593 7.74395 184.647 7.78929 184.416 8.03862Z" fill="#2D31FA"/>
</svg>
